HIERARCHY
ROOT joint_0
{
	OFFSET 0.000000 0.000000 0.000000
	CHANNELS 6 Xposition Yposition Zposition Zrotation Yrotation Xrotation 
	JOINT joint_1
	{
		OFFSET 0.000000 0.000000 0.000000
		CHANNELS 3 Zrotation Yrotation Xrotation
		JOINT joint_2
		{
			OFFSET 3.811170 -8.520760 0.839290
			CHANNELS 3 Zrotation Yrotation Xrotation
			JOINT joint_3
			{
				OFFSET 2.562200 -7.039590 0.000000
				CHANNELS 3 Zrotation Yrotation Xrotation
				JOINT joint_4
				{
					OFFSET 0.157640 -0.433110 2.322550
					CHANNELS 3 Zrotation Yrotation Xrotation
					End Site
					{
						OFFSET 0.000000 0.000000 0.000000
					}
				}
			}
		}
	}
	JOINT joint_5
	{
		OFFSET 0.000000 0.000000 0.000000
		CHANNELS 3 Zrotation Yrotation Xrotation
		JOINT joint_6
		{
			OFFSET -3.848050 -8.780180 0.839290
			CHANNELS 3 Zrotation Yrotation Xrotation
			JOINT joint_7
			{
				OFFSET -2.568260 -7.056230 0.000000
				CHANNELS 3 Zrotation Yrotation Xrotation
				JOINT joint_8
				{
					OFFSET -0.164730 -0.452590 2.363150
					CHANNELS 3 Zrotation Yrotation Xrotation
					End Site
					{
						OFFSET 0.000000 0.000000 0.000000
					}
				}
			}
		}
	}
	JOINT joint_9
	{
		OFFSET 0.028270 2.035590 -0.193380
		CHANNELS 3 Zrotation Yrotation Xrotation
		JOINT joint_10
		{
			OFFSET 0.056720 2.048850 -0.042750
			CHANNELS 3 Zrotation Yrotation Xrotation
			JOINT joint_11
			{
				OFFSET -0.054170 1.746240 0.172020
				CHANNELS 3 Zrotation Yrotation Xrotation
				JOINT joint_12
				{
					OFFSET 0.104070 1.761360 -0.123970
					CHANNELS 3 Zrotation Yrotation Xrotation
					End Site
					{
						OFFSET 0.000000 0.000000 0.000000
					}
				}
			}
			JOINT joint_13
			{
				OFFSET 3.362410 1.200890 -0.311210
				CHANNELS 3 Zrotation Yrotation Xrotation
				JOINT joint_14
				{
					OFFSET 4.983000 -0.000000 -0.000000
					CHANNELS 3 Zrotation Yrotation Xrotation
					JOINT joint_15
					{
						OFFSET 3.483560 -0.000000 -0.000000
						CHANNELS 3 Zrotation Yrotation Xrotation
						JOINT joint_16
						{
							OFFSET 0.715260 -0.000000 -0.000000
							CHANNELS 3 Zrotation Yrotation Xrotation
							End Site
							{
								OFFSET 0.000000 0.000000 0.000000
							}
						}
					}
				}
			}
			JOINT joint_17
			{
				OFFSET -3.136600 1.374050 -0.404650
				CHANNELS 3 Zrotation Yrotation Xrotation
				JOINT joint_18
				{
					OFFSET -5.241900 -0.000000 -0.000000
					CHANNELS 3 Zrotation Yrotation Xrotation
					JOINT joint_19
					{
						OFFSET -3.444170 -0.000000 -0.000000
						CHANNELS 3 Zrotation Yrotation Xrotation
						JOINT joint_20
						{
							OFFSET -0.622530 -0.000000 -0.000000
							CHANNELS 3 Zrotation Yrotation Xrotation
							End Site
							{
								OFFSET 0.000000 0.000000 0.000000
							}
						}
					}
				}
			}
		}
	}
}
MOTION
Frames: 11
Frame Time: 0.031667
4.847296 15.567984 -2.364512 -5.013435 -25.555210 3.808602 -29.389850 -18.301070 -6.950511 10.831101 14.166737 18.824387 -14.893818 20.429454 -28.375454 3.844396 -4.431560 -10.197882 49.528365 28.925602 -18.550831 -0.939947 -35.055881 20.020178 44.941511 8.220970 -10.543675 -3.945887 9.162163 -24.304682 13.604954 -3.624661 -19.525160 11.501771 -1.156911 7.213609 22.915633 18.472154 15.477089 0.603124 -7.315974 14.093903 51.579953 -32.720370 -56.655968 28.159106 -75.772493 -37.444104 -40.220109 6.621605 38.128957 -6.866149 0.046357 -0.310589 111.274928 37.585093 5.736614 -99.256418 77.680834 -61.005808 -18.546723 7.266010 -34.295319 6.769038 0.082429 -0.632001 
4.817107 15.564921 -2.375835 -4.960369 -25.233309 3.832239 -51.261980 -38.955308 -49.903759 7.272362 17.740402 41.558559 -23.234775 2.400205 -8.882647 7.437581 -4.152901 -9.975562 28.258205 54.231688 7.706152 -3.581549 -37.733349 32.781875 -28.336257 -20.125272 7.474026 -6.898301 9.128832 -24.705658 16.982178 -0.510650 1.023937 6.618042 -11.861145 51.166525 18.883600 -5.272988 51.332167 0.941302 -7.317632 20.026458 150.627869 -39.770463 79.140272 69.844845 -87.033310 -62.651379 -42.666160 5.209520 48.596168 -6.553098 0.106493 -0.516187 110.118530 74.770183 -51.442574 24.316165 78.119000 67.622426 9.734485 2.430691 -6.494453 6.305338 -0.049165 -0.840552 
4.786918 15.561857 -2.387158 -4.907456 -24.911741 3.856510 -83.972968 -16.627892 -66.353826 20.074259 -0.423648 38.889950 -56.042611 16.105190 2.129215 6.814008 0.458917 4.444955 70.166554 13.190202 -50.596983 -12.727412 -39.714391 22.246039 12.370959 1.822950 27.684145 -8.741630 4.509920 -10.453778 74.348815 -20.242405 36.132196 8.306120 -19.503200 44.853651 32.216455 12.764391 50.172592 2.307681 -8.040929 20.337812 -7.172699 -48.168017 -142.674305 65.470689 -78.084177 -45.032578 -19.928556 7.980198 81.004766 -6.137786 0.140580 -0.559324 92.450961 68.459109 -164.585375 -7.004569 67.496259 71.292601 -31.331778 -1.676463 -39.649248 5.849350 -0.079094 -0.950405 
4.756367 15.558990 -2.397638 -4.866138 -24.549143 3.883723 -131.578581 -16.045742 -74.982787 -9.886584 -8.235492 12.731925 21.856957 -19.291080 -34.248088 5.919566 1.801525 10.596570 60.682235 47.440616 54.000203 -7.066778 17.661618 -30.738290 48.088169 24.069539 -37.384429 -9.027090 -0.231839 4.840753 38.388078 9.392754 18.533749 31.472532 14.849799 13.042135 36.998899 -1.445156 35.572380 3.481262 -8.286868 16.992640 -55.628848 -28.489124 54.238822 49.588973 -47.540644 -27.933005 -15.230217 -12.888341 71.162197 -6.173839 0.015834 -0.403795 -149.991327 80.315511 -69.247692 111.403017 70.272820 -163.312321 -40.493521 11.687979 12.913996 6.269273 0.060867 -0.770896 
4.725811 15.556126 -2.408110 -4.825040 -24.186731 3.911492 -88.501343 22.876797 -31.827561 -8.832405 9.395908 -18.881621 158.088758 -1.036968 10.703701 9.195090 -3.122074 -3.165932 69.017682 54.646691 27.544191 -3.632660 9.745859 -11.862509 26.547695 1.183187 66.344824 -9.280869 -4.704646 18.464761 39.633935 19.762514 -21.230921 20.707021 -19.148924 -20.690699 48.760212 -4.275105 49.587423 8.130344 -7.422832 18.260675 -85.469039 -38.698397 153.514311 106.752647 -72.771137 -44.018073 -9.727492 8.970894 -18.069032 -6.564829 -0.114750 -0.126222 -17.020160 77.421239 -173.490138 139.250921 30.276311 144.968506 -10.533642 4.095744 -48.289694 7.288767 0.232874 -0.456202 
4.695186 15.553324 -2.417671 -4.793570 -23.777342 3.938570 -86.345100 -37.634465 30.835777 -3.620211 50.075798 61.168879 -72.486004 31.352348 -85.633872 15.291187 -7.004952 -14.971780 76.126024 66.117666 39.512542 27.710076 -25.295035 52.659789 25.305105 -10.670427 -28.096992 -10.491922 -9.673398 33.812363 14.631481 28.435510 -22.452903 -8.554417 -1.148733 -58.617735 46.300801 5.173851 47.629501 18.932217 -6.178388 26.673639 107.036960 -45.132230 -38.505956 19.166855 -38.202527 54.582168 19.628524 14.623131 -7.245402 -6.997418 -0.170487 0.061116 -122.426879 79.598205 173.749061 60.381914 14.410342 -175.251001 1.705691 -16.158204 30.318479 8.292448 0.338278 -0.145973 
4.664560 15.550523 -2.427211 -4.762252 -23.367880 3.965985 -28.037751 -61.592563 -6.676639 -35.570768 39.867083 46.761090 -70.813482 27.633499 -69.673906 18.841878 -10.543129 -24.685591 -111.029166 73.991270 -161.137070 41.704763 -42.282604 61.986835 -37.148658 -43.512502 -96.476654 -9.883192 -11.320885 39.679120 -42.100070 27.292551 7.815388 3.046365 -14.178184 -41.294262 38.959826 -9.524559 46.023273 25.861675 -6.937456 31.468215 159.415017 -60.580486 -108.013397 0.436645 -41.090632 103.221796 -35.174105 5.630038 36.888749 -6.933677 -0.163197 0.184210 24.362033 57.913160 48.351739 118.429724 15.641074 163.726180 -0.562715 -2.118939 27.841458 8.411859 0.272562 -0.028598 
4.634356 15.547652 -2.435450 -4.730384 -22.914324 3.990155 -24.318583 -60.351176 -34.243136 -44.421498 35.139592 36.408228 -89.342344 17.387459 -37.156642 18.048782 -12.154709 -31.874041 62.474852 75.578099 19.188243 69.846880 -20.023087 47.048679 -5.846174 -41.234088 -49.099771 -7.710111 -10.113593 35.493047 10.532929 9.149112 -2.822889 -6.648009 -7.067601 -14.358593 62.860628 -9.398738 66.758003 27.045836 -5.517698 32.433338 108.743920 -62.519679 -48.501890 -52.674318 -56.327663 161.090138 -5.813312 14.213003 46.838675 -7.043911 -0.041418 0.143174 -44.210773 71.143285 53.245802 152.426093 43.917401 -168.550034 4.446561 -15.165639 4.737413 8.528812 0.222205 0.005289 
4.604167 15.544780 -2.443646 -4.698308 -22.460527 4.014283 9.523040 -23.027564 -19.424457 -35.730775 30.180256 34.114411 -71.178385 34.383835 -21.744741 13.951058 -8.091150 -21.288907 35.448846 45.633102 -6.066423 36.156248 -19.371711 26.475806 9.201283 -34.662834 -33.044035 -4.715696 -6.501909 21.886576 6.628360 -0.151302 -20.338961 -9.994606 -20.662640 -26.186233 61.214170 -7.094827 59.460669 23.875077 -4.631280 28.181331 118.692650 -77.678164 -41.102729 -146.170032 -59.105119 -167.622893 -7.087522 24.870080 31.108646 -7.033233 0.051513 0.001889 -34.587132 86.429145 13.047028 148.320572 50.013413 -145.732640 5.983420 3.335124 1.956842 8.399172 0.150603 -0.018443 
4.574755 15.541664 -2.450464 -4.659977 -21.971764 4.033286 13.856436 2.885544 -12.921241 -52.358584 46.881718 19.303962 -83.541492 9.836651 9.805002 8.751567 -1.436231 -0.602644 42.877766 -0.195721 -9.878776 76.952989 -26.771999 0.919053 9.434358 -0.500750 -35.210704 -2.034124 -5.095601 16.543084 11.905635 -10.803341 -20.055785 6.043984 -23.071619 -26.287120 65.109291 8.803223 48.039955 9.946915 -5.448973 18.970710 -15.796884 -53.679194 -57.481260 -147.023338 -55.548981 134.330917 -29.159556 26.589638 43.643741 -6.725192 0.056768 0.020020 58.887815 55.125398 12.023821 120.838691 52.364269 156.331301 28.811333 -12.399959 -5.310772 7.824192 0.072813 -0.057302 
4.545377 15.538537 -2.457219 -4.621037 -21.482920 4.051727 -37.252634 19.958936 -15.573439 -36.398788 33.221132 17.249419 -77.149507 -7.512838 -8.235996 5.252626 1.058250 8.002808 37.430355 -3.473158 -4.038145 49.282977 -12.998376 -20.848898 23.890291 4.816442 11.280154 -0.977083 -4.992995 16.321470 23.491604 -10.126608 -3.836066 7.699850 -9.707236 -4.299710 43.703027 3.966229 33.377437 -0.667627 -5.770409 12.481531 -56.252280 -34.032787 -68.614667 -129.994727 -70.314361 141.703625 -13.455698 2.697412 34.378234 -6.523143 -0.001887 0.184414 57.572375 48.210808 -49.719402 127.234531 57.931242 161.484452 -22.710640 -9.305393 23.607193 7.447379 0.122064 -0.045622 
